<svg width="412" height="61" viewBox="0 0 412 61" fill="none" xmlns="http://www.w3.org/2000/svg">
<path d="M30.6465 0H0V12.7197H30.6465V0Z" transform="translate(0.365723 0.731689)" fill="#4647CC"/>
<path d="M30.6466 0H0V12.7197H30.6466V0Z" transform="translate(34.7905 0.731689)" fill="#4647CC"/>
<path d="M30.6465 0H0V12.7197H30.6465V0Z" transform="translate(69.6353 0.731689)" fill="#4647CC"/>
<path d="M30.6466 0H0V12.7197H30.6466V0Z" transform="translate(104.06 0.731689)" fill="#4647CC"/>
<path d="M30.6466 0H0V12.7197H30.6466V0Z" transform="translate(138.485 0.731689)" fill="#4647CC"/>
<path d="M30.6466 0H0V12.7197H30.6466V0Z" transform="translate(173.33 0.731689)" fill="#4647CC"/>
<path d="M30.6466 0H0V12.7197H30.6466V0Z" transform="translate(207.754 0.731689)" fill="#4647CC"/>
<path d="M30.6466 0H0V12.7197H30.6466V0Z" transform="translate(242.599 0.731689)" fill="#4647CC"/>
<path d="M30.6466 0H0V12.7197H30.6466V0Z" transform="translate(277.024 0.731689)" fill="#4647CC"/>
<path d="M30.6466 0H0V12.7197H30.6466V0Z" transform="translate(311.449 0.731689)" fill="#4647CC"/>
<path d="M30.6465 0H0V12.7197H30.6465V0Z" transform="translate(346.294 0.731689)" fill="#4647CC"/>
<path d="M30.6465 0H0V12.7197H30.6465V0Z" transform="translate(380.719 0.731689)" fill="#4647CC"/>
<path d="M30.6466 0H0V12.7197H30.6466V0Z" transform="translate(17.5774 16.6312)" fill="#4647CC"/>
<path d="M13.4341 0H0V12.7197H13.4341V0Z" transform="translate(0.365723 16.6312)" fill="#4647CC"/>
<path d="M30.6466 0H0V12.7197H30.6466V0Z" transform="translate(52.4224 16.6312)" fill="#4647CC"/>
<path d="M30.6466 0H0V12.7197H30.6466V0Z" transform="translate(86.8472 16.6312)" fill="#4647CC"/>
<path d="M30.6466 0H0V12.7197H30.6466V0Z" transform="translate(121.273 16.6312)" fill="#4647CC"/>
<path d="M30.6466 0H0V12.7197H30.6466V0Z" transform="translate(156.117 16.6312)" fill="#4647CC"/>
<path d="M30.6466 0H0V12.7197H30.6466V0Z" transform="translate(190.542 16.6312)" fill="#4647CC"/>
<path d="M30.6465 0H0V12.7197H30.6465V0Z" transform="translate(224.967 16.6312)" fill="#4647CC"/>
<path d="M30.6466 0H0V12.7197H30.6466V0Z" transform="translate(259.812 16.6312)" fill="#4647CC"/>
<path d="M30.6465 0H0V12.7197H30.6465V0Z" transform="translate(294.237 16.6312)" fill="#4647CC"/>
<path d="M30.6466 0H0V12.7197H30.6466V0Z" transform="translate(329.082 16.6312)" fill="#4647CC"/>
<path d="M30.6465 0H0V12.7197H30.6465V0Z" transform="translate(363.507 16.6312)" fill="#4647CC"/>
<path d="M13.4342 0H0V12.7197H13.4342V0Z" transform="translate(397.932 16.6312)" fill="#4647CC"/>
<path d="M30.6465 0H0V12.7197H30.6465V0Z" transform="translate(0.365723 32.1127)" fill="#4647CC"/>
<path d="M30.6466 0H0V12.7197H30.6466V0Z" transform="translate(34.7905 32.1127)" fill="#4647CC"/>
<path d="M30.6465 0H0V12.7197H30.6465V0Z" transform="translate(69.6353 32.1127)" fill="#4647CC"/>
<path d="M30.6466 0H0V12.7197H30.6466V0Z" transform="translate(104.06 32.1127)" fill="#4647CC"/>
<path d="M30.6466 0H0V12.7197H30.6466V0Z" transform="translate(138.485 32.1127)" fill="#4647CC"/>
<path d="M30.6466 0H0V12.7197H30.6466V0Z" transform="translate(173.33 32.1127)" fill="#4647CC"/>
<path d="M30.6466 0H0V12.7197H30.6466V0Z" transform="translate(207.754 32.1127)" fill="#4647CC"/>
<path d="M30.6466 0H0V12.7197H30.6466V0Z" transform="translate(242.599 32.1127)" fill="#4647CC"/>
<path d="M30.6466 0H0V12.7197H30.6466V0Z" transform="translate(277.024 32.1127)" fill="#4647CC"/>
<path d="M30.6466 0H0V12.7197H30.6466V0Z" transform="translate(311.449 32.1127)" fill="#4647CC"/>
<path d="M30.6465 0H0V12.7197H30.6465V0Z" transform="translate(346.294 32.1127)" fill="#4647CC"/>
<path d="M30.6465 0H0V12.7197H30.6465V0Z" transform="translate(380.719 32.1127)" fill="#4647CC"/>
<path d="M30.6466 0H0V12.7197H30.6466V0Z" transform="translate(17.5774 48.012)" fill="#4647CC"/>
<path d="M13.4341 0H0V12.7197H13.4341V0Z" transform="translate(0.365723 48.012)" fill="#4647CC"/>
<path d="M30.6466 0H0V12.7197H30.6466V0Z" transform="translate(52.4224 48.012)" fill="#4647CC"/>
<path d="M30.6466 0H0V12.7197H30.6466V0Z" transform="translate(86.8472 48.012)" fill="#4647CC"/>
<path d="M30.6466 0H0V12.7197H30.6466V0Z" transform="translate(121.273 48.012)" fill="#4647CC"/>
<path d="M30.6466 0H0V12.7197H30.6466V0Z" transform="translate(156.117 48.012)" fill="#4647CC"/>
<path d="M30.6466 0H0V12.7197H30.6466V0Z" transform="translate(190.542 48.012)" fill="#4647CC"/>
<path d="M30.6465 0H0V12.7197H30.6465V0Z" transform="translate(224.967 48.012)" fill="#4647CC"/>
<path d="M30.6466 0H0V12.7197H30.6466V0Z" transform="translate(259.812 48.012)" fill="#4647CC"/>
<path d="M30.6465 0H0V12.7197H30.6465V0Z" transform="translate(294.237 48.012)" fill="#4647CC"/>
<path d="M30.6466 0H0V12.7197H30.6466V0Z" transform="translate(329.082 48.012)" fill="#4647CC"/>
<path d="M30.6465 0H0V12.7197H30.6465V0Z" transform="translate(363.507 48.012)" fill="#4647CC"/>
<path d="M13.4342 0H0V12.7197H13.4342V0Z" transform="translate(397.932 48.012)" fill="#4647CC"/>
</svg>
